<?xml version="1.0" encoding="UTF-8"?>
<svg width="200px" height="60px" viewBox="0 0 200 60" version="1.1" xmlns="http://www.w3.org/2000/svg">
  <g fill="#FFFFFF">
    <path d="M20,10 L50,10 C55.5228,10 60,14.4772 60,20 L60,40 C60,45.5228 55.5228,50 50,50 L20,50 C14.4772,50 10,45.5228 10,40 L10,20 C10,14.4772 14.4772,10 20,10 Z M22,18 L22,42 L48,42 L48,18 L22,18 Z" />
    <path d="M70,15 L90,15 L90,20 L75,20 L75,25 L85,25 L85,30 L75,30 L75,35 L90,35 L90,40 L70,40 L70,15 Z" />
    <path d="M95,15 L105,15 C110.5228,15 115,19.4772 115,25 C115,30.5228 110.5228,35 105,35 L100,35 L100,45 L95,45 L95,15 Z M100,20 L100,30 L105,30 C107.7614,30 110,27.7614 110,25 C110,22.2386 107.7614,20 105,20 L100,20 Z" />
    <path d="M120,15 L140,15 L140,20 L125,20 L125,25 L135,25 L135,30 L125,30 L125,35 L140,35 L140,40 L120,40 L120,15 Z" />
    <path d="M145,15 L150,15 L150,40 L145,40 L145,15 Z" />
    <path d="M155,15 L175,15 L175,20 L160,20 L160,25 L170,25 L170,30 L160,30 L160,35 L175,35 L175,40 L155,40 L155,15 Z" />
  </g>
</svg>
